<svg xmlns="http://www.w3.org/2000/svg" viewBox="0 0 32 17"><rect x="15" y="0" width="1" height="1" style="fill:#705020;" /><rect x="16" y="1" width="2" height="1" style="fill:#705020;" /><rect x="18" y="1" width="1" height="1" style="fill:#8f8f8f;" /><rect x="14" y="2" width="2" height="1" style="fill:#705020;" /><rect x="16" y="2" width="5" height="1" style="fill:#8f8f8f;" /><rect x="12" y="3" width="2" height="1" style="fill:#705020;" /><rect x="14" y="3" width="9" height="1" style="fill:#8f8f8f;" /><rect x="10" y="4" width="2" height="1" style="fill:#705020;" /><rect x="12" y="4" width="9" height="1" style="fill:#8f8f8f;" /><rect x="21" y="4" width="2" height="1" style="fill:#e0e0e0;" /><rect x="23" y="4" width="2" height="1" style="fill:#8f8f8f;" /><rect x="8" y="5" width="2" height="1" style="fill:#705020;" /><rect x="10" y="5" width="9" height="1" style="fill:#8f8f8f;" /><rect x="19" y="5" width="2" height="1" style="fill:#e0e0e0;" /><rect x="21" y="5" width="6" height="1" style="fill:#8f8f8f;" /><rect x="6" y="6" width="2" height="1" style="fill:#705020;" /><rect x="8" y="6" width="9" height="1" style="fill:#8f8f8f;" /><rect x="17" y="6" width="2" height="1" style="fill:#e0e0e0;" /><rect x="19" y="6" width="10" height="1" style="fill:#8f8f8f;" /><rect x="4" y="7" width="2" height="1" style="fill:#705020;" /><rect x="6" y="7" width="22" height="1" style="fill:#8f8f8f;" /><rect x="28" y="7" width="2" height="1" /><rect x="0" y="8" width="1" height="1" style="fill:#705020;" /><rect x="2" y="8" width="2" height="1" style="fill:#705020;" /><rect x="4" y="8" width="9" height="1" style="fill:#8f8f8f;" /><rect x="13" y="8" width="2" height="1" style="fill:#e0e0e0;" /><rect x="15" y="8" width="11" height="1" style="fill:#8f8f8f;" /><rect x="26" y="8" width="2" height="1" /><rect x="31" y="8" width="1" height="1" style="fill:#705020;" /><rect x="1" y="9" width="1" height="1" style="fill:#705020;" /><rect x="2" y="9" width="9" height="1" style="fill:#8f8f8f;" /><rect x="11" y="9" width="2" height="1" style="fill:#e0e0e0;" /><rect x="13" y="9" width="11" height="1" style="fill:#8f8f8f;" /><rect x="24" y="9" width="2" height="1" /><rect x="3" y="10" width="6" height="1" style="fill:#8f8f8f;" /><rect x="9" y="10" width="2" height="1" style="fill:#e0e0e0;" /><rect x="11" y="10" width="11" height="1" style="fill:#8f8f8f;" /><rect x="22" y="10" width="2" height="1" /><rect x="5" y="11" width="15" height="1" style="fill:#8f8f8f;" /><rect x="20" y="11" width="2" height="1" /><rect x="7" y="12" width="11" height="1" style="fill:#8f8f8f;" /><rect x="18" y="12" width="2" height="1" /><rect x="9" y="13" width="7" height="1" style="fill:#8f8f8f;" /><rect x="16" y="13" width="2" height="1" /><rect x="11" y="14" width="3" height="1" style="fill:#8f8f8f;" /><rect x="14" y="14" width="2" height="1" /><rect x="13" y="15" width="1" height="1" /><rect x="15" y="16" width="1" height="1" style="fill:#705020;" /></svg>